<svg xmlns="http://www.w3.org/2000/svg" width="220" height="220" viewBox="0 0 220 220">
  <rect id="Rectangle_6" data-name="Rectangle 6" width="20" height="20" fill="#c2c2c2"/>
  <rect id="Rectangle_6-2" data-name="Rectangle 6" width="20" height="20" transform="translate(40)" fill="#c2c2c2"/>
  <rect id="Rectangle_6-3" data-name="Rectangle 6" width="20" height="20" transform="translate(80)" fill="#c2c2c2"/>
  <rect id="Rectangle_6-4" data-name="Rectangle 6" width="20" height="20" transform="translate(120)" fill="#c2c2c2"/>
  <rect id="Rectangle_6-5" data-name="Rectangle 6" width="20" height="20" transform="translate(160)" fill="#c2c2c2"/>
  <rect id="Rectangle_6-6" data-name="Rectangle 6" width="20" height="20" transform="translate(200)" fill="#c2c2c2"/>
  <rect id="Rectangle_6-7" data-name="Rectangle 6" width="20" height="20" transform="translate(0 40)" fill="#c2c2c2"/>
  <rect id="Rectangle_6-8" data-name="Rectangle 6" width="20" height="20" transform="translate(40 40)" fill="#c2c2c2"/>
  <rect id="Rectangle_6-9" data-name="Rectangle 6" width="20" height="20" transform="translate(80 40)" fill="#c2c2c2"/>
  <rect id="Rectangle_6-10" data-name="Rectangle 6" width="20" height="20" transform="translate(120 40)" fill="#c2c2c2"/>
  <rect id="Rectangle_6-11" data-name="Rectangle 6" width="20" height="20" transform="translate(160 40)" fill="#c2c2c2"/>
  <rect id="Rectangle_6-12" data-name="Rectangle 6" width="20" height="20" transform="translate(200 40)" fill="#c2c2c2"/>
  <rect id="Rectangle_6-13" data-name="Rectangle 6" width="20" height="20" transform="translate(0 80)" fill="#c2c2c2"/>
  <rect id="Rectangle_6-14" data-name="Rectangle 6" width="20" height="20" transform="translate(40 80)" fill="#c2c2c2"/>
  <rect id="Rectangle_6-15" data-name="Rectangle 6" width="20" height="20" transform="translate(80 80)" fill="#c2c2c2"/>
  <rect id="Rectangle_6-16" data-name="Rectangle 6" width="20" height="20" transform="translate(120 80)" fill="#c2c2c2"/>
  <rect id="Rectangle_6-17" data-name="Rectangle 6" width="20" height="20" transform="translate(160 80)" fill="#c2c2c2"/>
  <rect id="Rectangle_6-18" data-name="Rectangle 6" width="20" height="20" transform="translate(200 80)" fill="#c2c2c2"/>
  <rect id="Rectangle_6-19" data-name="Rectangle 6" width="20" height="20" transform="translate(0 120)" fill="#c2c2c2"/>
  <rect id="Rectangle_6-20" data-name="Rectangle 6" width="20" height="20" transform="translate(40 120)" fill="#c2c2c2"/>
  <rect id="Rectangle_6-21" data-name="Rectangle 6" width="20" height="20" transform="translate(80 120)" fill="#c2c2c2"/>
  <rect id="Rectangle_6-22" data-name="Rectangle 6" width="20" height="20" transform="translate(120 120)" fill="#c2c2c2"/>
  <rect id="Rectangle_6-23" data-name="Rectangle 6" width="20" height="20" transform="translate(160 120)" fill="#c2c2c2"/>
  <rect id="Rectangle_6-24" data-name="Rectangle 6" width="20" height="20" transform="translate(200 120)" fill="#c2c2c2"/>
  <rect id="Rectangle_6-25" data-name="Rectangle 6" width="20" height="20" transform="translate(0 160)" fill="#c2c2c2"/>
  <rect id="Rectangle_6-26" data-name="Rectangle 6" width="20" height="20" transform="translate(40 160)" fill="#c2c2c2"/>
  <rect id="Rectangle_6-27" data-name="Rectangle 6" width="20" height="20" transform="translate(80 160)" fill="#c2c2c2"/>
  <rect id="Rectangle_6-28" data-name="Rectangle 6" width="20" height="20" transform="translate(120 160)" fill="#c2c2c2"/>
  <rect id="Rectangle_6-29" data-name="Rectangle 6" width="20" height="20" transform="translate(160 160)" fill="#c2c2c2"/>
  <rect id="Rectangle_6-30" data-name="Rectangle 6" width="20" height="20" transform="translate(200 160)" fill="#c2c2c2"/>
  <rect id="Rectangle_6-31" data-name="Rectangle 6" width="20" height="20" transform="translate(0 200)" fill="#c2c2c2"/>
  <rect id="Rectangle_6-32" data-name="Rectangle 6" width="20" height="20" transform="translate(40 200)" fill="#c2c2c2"/>
  <rect id="Rectangle_6-33" data-name="Rectangle 6" width="20" height="20" transform="translate(80 200)" fill="#c2c2c2"/>
  <rect id="Rectangle_6-34" data-name="Rectangle 6" width="20" height="20" transform="translate(120 200)" fill="#c2c2c2"/>
  <rect id="Rectangle_6-35" data-name="Rectangle 6" width="20" height="20" transform="translate(160 200)" fill="#c2c2c2"/>
  <rect id="Rectangle_6-36" data-name="Rectangle 6" width="20" height="20" transform="translate(200 200)" fill="#c2c2c2"/>
</svg>
