<svg xmlns="http://www.w3.org/2000/svg" width="455.841" height="565.638" viewBox="0 0 455.841 565.638">
  <path id="Icon_simple-f-secure" data-name="Icon simple-f-secure" d="M35.9,4.41a53.91,53.91,0,0,0-33.36-.9A3.33,3.33,0,0,0,.1,7.635,55.028,55.028,0,0,0,2.625,15.3c.015.06.045.03.045-.03a3.227,3.227,0,0,1,2.52-3.195,41.34,41.34,0,0,1,26.085.345,2.462,2.462,0,0,0,3.15-1.59A53.028,53.028,0,0,0,36,4.59c.015-.105-.075-.15-.1-.18ZM9.975,11.835a42.448,42.448,0,0,0-4.41,1.14,3.089,3.089,0,0,0-1.125,5.2,2.586,2.586,0,0,1,1.47-1.695,30.373,30.373,0,0,1,8.43-1.935,15.3,15.3,0,0,1-4.35-2.715m21.255,6.51A31.74,31.74,0,0,0,6.57,17.37a2.446,2.446,0,0,0-1.275,3.5,57.239,57.239,0,0,0,4.725,7.2,2.6,2.6,0,0,1,1.9-3.015,20.243,20.243,0,0,1,12.99.5,2.493,2.493,0,0,0,2.985-.96,57.931,57.931,0,0,0,3.435-6.03c.045-.09,0-.165-.09-.21M23.58,30a14.88,14.88,0,0,1-3.75-2.7c-.51-.51-1.26-1.245-2.055-2.115a17.3,17.3,0,0,0-5.43.78,2.343,2.343,0,0,0-1.14,3.6,50.226,50.226,0,0,0,3.63,3.96,4.11,4.11,0,0,0,5.73.03c1.125-1.125,1.815-1.875,3.09-3.315A.143.143,0,0,0,23.58,30" transform="translate(398.199 321.16)" fill="#d7d7d7"/>
  <path id="Icon_awesome-recycle" data-name="Icon awesome-recycle" d="M12.977,18.415a1.126,1.126,0,0,1-1.692,1.207L8.42,17.832,4.844,23.556A2.254,2.254,0,0,0,6.751,27h3.655a.844.844,0,0,1,.844.844v2.813a.844.844,0,0,1-.844.844H6.758A6.754,6.754,0,0,1,1.034,21.173L4.608,15.45,1.744,13.661a1.126,1.126,0,0,1,.343-2.05L9.838,9.821a1.125,1.125,0,0,1,1.349.843l1.79,7.751Zm6.93-12.861,2.9,4.646-2.865,1.79a1.126,1.126,0,0,0,.343,2.05l7.751,1.789a1.125,1.125,0,0,0,1.349-.843l1.789-7.751a1.126,1.126,0,0,0-1.692-1.207L26.625,7.816l-2.9-4.646a6.753,6.753,0,0,0-11.448,0L11.013,5.192a.844.844,0,0,0,.269,1.162l2.385,1.49a.844.844,0,0,0,1.163-.268l1.263-2.021A2.252,2.252,0,0,1,19.907,5.554ZM34.966,21.173l-1.935-3.1a.844.844,0,0,0-1.163-.269l-2.381,1.488a.844.844,0,0,0-.268,1.163l1.938,3.1A2.254,2.254,0,0,1,29.249,27H22.5V23.626a1.126,1.126,0,0,0-1.92-.8l-5.625,5.624a1.125,1.125,0,0,0,0,1.591L20.58,35.67a1.126,1.126,0,0,0,1.92-.8V31.5h6.742A6.754,6.754,0,0,0,34.966,21.173Z" transform="translate(58.991 72.342)" fill="#d7d7d7"/>
  <g id="Groupe_3" data-name="Groupe 3" transform="translate(2481.702 2297.473) rotate(45)">
    <g id="Groupe_1" data-name="Groupe 1" transform="translate(-2982 -80.858)">
      <rect id="Rectangle_2" data-name="Rectangle 2" width="12" height="6" transform="translate(0 -0.142)" fill="#d7d7d7"/>
      <rect id="Rectangle_3" data-name="Rectangle 3" width="12" height="6" transform="translate(24 -0.142)" fill="#d7d7d7"/>
    </g>
    <g id="Groupe_2" data-name="Groupe 2" transform="translate(-2960.802 -96) rotate(90)">
      <rect id="Rectangle_2-2" data-name="Rectangle 2" width="12" height="6" transform="translate(0 0.198)" fill="#d7d7d7"/>
      <rect id="Rectangle_3-2" data-name="Rectangle 3" width="12" height="6" transform="translate(24 0.198)" fill="#d7d7d7"/>
    </g>
  </g>
  <g id="Groupe_4" data-name="Groupe 4" transform="translate(2099.702 2622.473) rotate(45)">
    <g id="Groupe_1-2" data-name="Groupe 1" transform="translate(-2982 -80.858)">
      <rect id="Rectangle_2-3" data-name="Rectangle 2" width="12" height="6" transform="translate(0 -0.142)" fill="#d7d7d7"/>
      <rect id="Rectangle_3-3" data-name="Rectangle 3" width="12" height="6" transform="translate(24 -0.142)" fill="#d7d7d7"/>
    </g>
    <g id="Groupe_2-2" data-name="Groupe 2" transform="translate(-2960.802 -96) rotate(90)">
      <rect id="Rectangle_2-4" data-name="Rectangle 2" width="12" height="6" transform="translate(0 0.198)" fill="#d7d7d7"/>
      <rect id="Rectangle_3-4" data-name="Rectangle 3" width="12" height="6" transform="translate(24 0.198)" fill="#d7d7d7"/>
    </g>
  </g>
  <path id="Icon_awesome-chess-board" data-name="Icon awesome-chess-board" d="M25.576.014h-6.4v6.4h6.4ZM0,6.407v6.4H6.4v-6.4ZM12.793.014H6.4v6.4h6.4Zm6.4,25.576v6.4h6.4v-6.4ZM0,19.2v6.4H6.4V19.2ZM38.363.014h-6.4v6.4h6.4Zm12.793,0h-6.4v6.4h6.4ZM12.793,25.59H6.4v6.4h6.4ZM51.151,44.769v-6.4h-6.4v6.4Zm0-12.793v-6.4h-6.4v6.4ZM38.363,51.165h6.4v-6.4h-6.4ZM51.156,19.2V12.8h-6.4v6.4ZM12.793,51.165h6.4v-6.4h-6.4ZM0,51.165H6.4v-6.4H0Zm25.576,0h6.4v-6.4h-6.4ZM0,31.983v6.4H6.4v-6.4ZM31.97,12.8v-6.4h-6.4v6.4Zm-6.4,12.793h6.4V19.2h-6.4Zm-6.4,12.793v6.4h6.4v-6.4Zm12.793-6.4h6.4v-6.4h-6.4Zm0-12.788h6.4v-6.4h-6.4Zm0,19.182v6.4h6.4v-6.4ZM6.4,38.377v6.4h6.4v-6.4ZM19.189,12.8v-6.4h-6.4v6.4ZM38.37,38.377h6.4v-6.4h-6.4ZM25.578,19.2V12.8h-6.4v6.4ZM38.37,6.407v6.4h6.4v-6.4ZM25.578,31.983v6.4h6.4v-6.4ZM19.181,19.2H12.793v6.4h6.4Zm19.181,6.4h6.4V19.2h-6.4ZM12.793,12.8H6.4v6.4h6.4Zm0,19.181v6.4h6.4v-6.4Z" transform="translate(301.829 -0.01) rotate(45)" fill="#d7d7d7"/>
  <path id="Intersection_1" data-name="Intersection 1" d="M23.273,73.14,18,67.748V20.279l5.273-5.432A2.811,2.811,0,0,1,28,16.1l1.874,7.345,7.265-2.07a2.84,2.84,0,0,1,3.477,3.477l-2.07,7.268,7.342,1.874a2.791,2.791,0,0,1,1.25,4.727l-5.389,5.275,5.389,5.275A2.793,2.793,0,0,1,45.886,54L38.545,55.87l2.069,7.268a2.839,2.839,0,0,1-3.476,3.477l-7.265-2.07L28,71.89A2.782,2.782,0,0,1,25.261,74,2.68,2.68,0,0,1,23.273,73.14Z" transform="translate(-18 182.454)" fill="#d7d7d7"/>
  <g id="Groupe_5" data-name="Groupe 5" transform="translate(2589 1375.454)">
    <path id="Icon_awesome-dollar-sign" data-name="Icon awesome-dollar-sign" d="M14.709,16.411,7.116,14.189A2.074,2.074,0,0,1,7.7,10.125h4.662a4.292,4.292,0,0,1,2.4.738,1.1,1.1,0,0,0,1.371-.141l2.447-2.391a1.14,1.14,0,0,0-.127-1.723A9.942,9.942,0,0,0,12.375,4.5V1.125A1.128,1.128,0,0,0,11.25,0H9A1.128,1.128,0,0,0,7.875,1.125V4.5H7.7A7.7,7.7,0,0,0,.035,12.909,8.049,8.049,0,0,0,5.927,19.7l7.207,2.109a2.074,2.074,0,0,1-.584,4.064H7.889a4.292,4.292,0,0,1-2.4-.738,1.1,1.1,0,0,0-1.371.141L1.666,27.668a1.14,1.14,0,0,0,.127,1.723A9.942,9.942,0,0,0,7.875,31.5v3.375A1.128,1.128,0,0,0,9,36h2.25a1.128,1.128,0,0,0,1.125-1.125V31.486a7.942,7.942,0,0,0,7.432-5.112,7.721,7.721,0,0,0-5.1-9.963Z" transform="translate(-2239.038 -865.913)" fill="#d7d7d7"/>
    <g id="Ellipse_1" data-name="Ellipse 1" transform="translate(-2229 -886.184) rotate(45)" fill="none" stroke="#d7d7d7" stroke-width="5">
      <circle cx="27" cy="27" r="27" stroke="none"/>
      <circle cx="27" cy="27" r="24.5" fill="none"/>
    </g>
    <line id="Ligne_1" data-name="Ligne 1" x1="51" transform="translate(-2247.385 -865.678) rotate(45)" fill="none" stroke="#d7d7d7" stroke-width="5"/>
  </g>
</svg>
