<svg xmlns="http://www.w3.org/2000/svg" width="1899.748" height="1080" viewBox="0 0 1899.748 1080">
  <path id="Icon_simple-f-secure" data-name="Icon simple-f-secure" d="M68.564,7.243a102.933,102.933,0,0,0-63.7-1.718A6.358,6.358,0,0,0,.209,13.4,105.067,105.067,0,0,0,5.03,28.036c.029.115.086.057.086-.057a6.161,6.161,0,0,1,4.812-6.1,78.933,78.933,0,0,1,49.805.659A4.7,4.7,0,0,0,65.747,19.5,101.252,101.252,0,0,0,68.755,7.587c.029-.2-.143-.286-.191-.344ZM19.064,21.42a81.051,81.051,0,0,0-8.42,2.177A5.9,5.9,0,0,0,8.5,33.526,4.938,4.938,0,0,1,11.3,30.289a57.993,57.993,0,0,1,16.1-3.695,29.213,29.213,0,0,1-8.306-5.184m40.583,12.43a60.6,60.6,0,0,0-47.113-1.852,4.67,4.67,0,0,0-2.434,6.683A109.288,109.288,0,0,0,19.15,52.419a4.964,4.964,0,0,1,3.628-5.757,38.651,38.651,0,0,1,24.8.955,4.76,4.76,0,0,0,5.7-1.833A110.611,110.611,0,0,0,59.838,34.27c.086-.172,0-.315-.172-.4M45.04,56.1a28.411,28.411,0,0,1-7.16-5.155c-.974-.974-2.406-2.377-3.924-4.038A33.031,33.031,0,0,0,23.589,48.4a4.474,4.474,0,0,0-2.177,6.874,95.9,95.9,0,0,0,6.931,7.561,7.847,7.847,0,0,0,10.941.057c2.148-2.148,3.465-3.58,5.9-6.329a.273.273,0,0,0-.143-.458" transform="translate(1789.689 614.383)" fill="#d7d7d7"/>
  <path id="Icon_awesome-recycle" data-name="Icon awesome-recycle" d="M24.768,35.161a2.15,2.15,0,0,1-3.231,2.3l-5.47-3.418L9.239,44.976a4.3,4.3,0,0,0,3.641,6.576h6.979a1.611,1.611,0,0,1,1.611,1.611v5.371a1.611,1.611,0,0,1-1.611,1.611H12.893A12.9,12.9,0,0,1,1.964,40.427L8.788,29.5,3.32,26.083a2.15,2.15,0,0,1,.655-3.914l14.8-3.418a2.148,2.148,0,0,1,2.576,1.61ZM38,10.6l5.537,8.871-5.47,3.418a2.15,2.15,0,0,0,.655,3.914l14.8,3.416a2.148,2.148,0,0,0,2.576-1.61l3.416-14.8a2.15,2.15,0,0,0-3.231-2.3l-5.455,3.414L45.289,6.053a12.894,12.894,0,0,0-21.858,0L21.018,9.913a1.611,1.611,0,0,0,.514,2.219l4.554,2.845a1.611,1.611,0,0,0,2.221-.512l2.412-3.859A4.3,4.3,0,0,1,38,10.6ZM66.752,40.427l-3.695-5.919a1.611,1.611,0,0,0-2.221-.514l-4.546,2.841a1.611,1.611,0,0,0-.512,2.221l3.7,5.919a4.3,4.3,0,0,1-3.643,6.578H42.95V45.11a2.15,2.15,0,0,0-3.666-1.527L28.544,54.321a2.148,2.148,0,0,0,0,3.038l10.74,10.748a2.15,2.15,0,0,0,3.666-1.527V60.144H55.823A12.9,12.9,0,0,0,66.752,40.427Z" transform="translate(112.644 138.126)" fill="#d7d7d7"/>
  <g id="Groupe_3" data-name="Groupe 3" transform="translate(1871.396 231.009) rotate(45)">
    <g id="Groupe_1" data-name="Groupe 1" transform="translate(0 28.64)">
      <rect id="Rectangle_2" data-name="Rectangle 2" width="22.912" height="11.456" transform="translate(0 0)" fill="#d7d7d7"/>
      <rect id="Rectangle_3" data-name="Rectangle 3" width="22.912" height="11.456" transform="translate(45.824 0)" fill="#d7d7d7"/>
    </g>
    <g id="Groupe_2" data-name="Groupe 2" transform="translate(40.096 0) rotate(90)">
      <rect id="Rectangle_2-2" data-name="Rectangle 2" width="22.912" height="11.456" transform="translate(0 0)" fill="#d7d7d7"/>
      <rect id="Rectangle_3-2" data-name="Rectangle 3" width="22.912" height="11.456" transform="translate(45.824 0)" fill="#d7d7d7"/>
    </g>
  </g>
  <g id="Groupe_4" data-name="Groupe 4" transform="translate(112.618 851.547) rotate(45)">
    <g id="Groupe_1-2" data-name="Groupe 1" transform="translate(0 28.64)">
      <rect id="Rectangle_2-3" data-name="Rectangle 2" width="22.912" height="11.456" transform="translate(0 0)" fill="#d7d7d7"/>
      <rect id="Rectangle_3-3" data-name="Rectangle 3" width="22.912" height="11.456" transform="translate(45.824 0)" fill="#d7d7d7"/>
    </g>
    <g id="Groupe_2-2" data-name="Groupe 2" transform="translate(40.096 0) rotate(90)">
      <rect id="Rectangle_2-4" data-name="Rectangle 2" width="22.912" height="11.456" transform="translate(0 0)" fill="#d7d7d7"/>
      <rect id="Rectangle_3-4" data-name="Rectangle 3" width="22.912" height="11.456" transform="translate(45.824 0)" fill="#d7d7d7"/>
    </g>
  </g>
  <path id="Icon_awesome-chess-board" data-name="Icon awesome-chess-board" d="M48.833,0H36.614V12.22h12.22ZM0,12.206v12.22H12.22V12.206ZM24.426,0H12.22V12.22H24.44Zm12.22,48.833v12.22h12.22V48.833ZM0,36.633v12.22H12.22V36.633ZM73.248,0H61.029V12.22h12.22ZM97.675,0H85.455V12.22h12.22ZM24.426,48.833H12.22v12.22H24.44ZM97.665,85.453V73.233H85.445v12.22Zm0-24.426V48.807H85.445v12.22ZM73.248,97.665h12.22V85.445H73.248ZM97.675,36.633V24.413H85.455v12.22ZM24.426,97.665h12.22V85.445H24.426ZM0,97.665H12.22V85.445H0Zm48.833,0h12.22V85.445H48.833ZM0,61.04V73.26H12.22V61.04ZM61.042,24.413V12.193H48.822v12.22ZM48.822,48.839h12.22V36.633H48.822ZM36.6,73.266v12.22h12.22V73.266Zm24.426-12.22h12.22V48.826H61.029Zm0-24.417h12.22V24.409H61.029Zm0,36.625v12.22h12.22V73.254ZM12.22,73.248v12.22H24.44V73.248ZM36.638,24.413V12.193H24.419v12.22ZM73.262,73.248h12.22V61.029H73.262ZM48.837,36.633V24.413H36.617v12.22ZM73.262,12.206v12.22h12.22V12.206ZM48.837,61.04V73.26h12.22V61.04ZM36.623,36.633h-12.2v12.22h12.22Zm36.623,12.22h12.22V36.633H73.246Zm-48.82-24.44H12.22v12.22H24.44Zm0,36.623v12.22h12.22V61.036Z" transform="translate(1270.173 0) rotate(45)" fill="#d7d7d7"/>
  <path id="Intersection_1" data-name="Intersection 1" d="M28.068,126.916,18,116.621V25.986L28.068,15.615a5.367,5.367,0,0,1,9.025,2.392l3.578,14.024,13.871-3.952a5.423,5.423,0,0,1,6.639,6.639L57.229,48.595l14.018,3.578A5.329,5.329,0,0,1,73.635,61.2L63.345,71.27,73.635,81.342a5.333,5.333,0,0,1-2.391,9.029l-14.017,3.57,3.95,13.877a5.421,5.421,0,0,1-6.637,6.639L40.67,110.505,37.093,124.53a5.312,5.312,0,0,1-5.23,4.029A5.117,5.117,0,0,1,28.068,126.916Z" transform="translate(-18 361.102)" fill="#d7d7d7"/>
  <g id="Groupe_5" data-name="Groupe 5" transform="translate(1643.865 934.187)">
    <path id="Icon_awesome-dollar-sign" data-name="Icon awesome-dollar-sign" d="M28.083,31.334l-14.5-4.243a3.96,3.96,0,0,1,1.115-7.76h8.9a8.2,8.2,0,0,1,4.582,1.409,2.1,2.1,0,0,0,2.618-.269l4.672-4.565a2.177,2.177,0,0,0-.242-3.29A18.983,18.983,0,0,0,23.626,8.592V2.148A2.154,2.154,0,0,0,21.478,0h-4.3a2.154,2.154,0,0,0-2.148,2.148V8.592H14.7A14.7,14.7,0,0,0,.065,24.648a15.368,15.368,0,0,0,11.25,12.966l13.761,4.027A3.96,3.96,0,0,1,23.96,49.4h-8.9a8.2,8.2,0,0,1-4.582-1.409,2.1,2.1,0,0,0-2.618.269L3.179,52.828a2.177,2.177,0,0,0,.242,3.29,18.983,18.983,0,0,0,11.613,4.027v6.444a2.154,2.154,0,0,0,2.148,2.148h4.3a2.154,2.154,0,0,0,2.148-2.148V60.118a15.164,15.164,0,0,0,14.19-9.761,14.742,14.742,0,0,0-9.738-19.023Z" transform="translate(53.742 38.704)" fill="#d7d7d7"/>
    <g id="Ellipse_1" data-name="Ellipse 1" transform="translate(72.906) rotate(45)" fill="none" stroke="#d7d7d7" stroke-width="5">
      <circle cx="51.552" cy="51.552" r="51.552" stroke="none"/>
      <circle cx="51.552" cy="51.552" r="49.052" fill="none"/>
    </g>
    <line id="Ligne_1" data-name="Ligne 1" x1="97.377" transform="translate(37.803 39.153) rotate(45)" fill="none" stroke="#d7d7d7" stroke-width="5"/>
  </g>
</svg>
