<svg xmlns="http://www.w3.org/2000/svg" viewBox="0 0 192.51 59.06"><defs><style>.cls-1{fill:#272a31;}.cls-2{fill:#ec5242;}.cls-3{fill:#eff0ea;}</style></defs><title>Asset 1</title><g id="Layer_2" data-name="Layer 2"><g id="OBJECTS"><rect class="cls-1" x="29.97" y="3.07" width="26.6" height="30.71" transform="translate(77.81 -13.48) rotate(114.21)"/><polygon class="cls-2" points="0 13.43 47.24 13.43 47.24 57.06 40.68 57.06 36.41 46.33 32.15 57.06 27.6 57.06 23.62 46.33 19.07 57.06 14.52 57.06 10.26 46.33 6 57.06 0 57.06 0 13.43"/><rect class="cls-3" x="32.15" y="40.41" width="8.52" height="18.66" transform="translate(72.83 99.47) rotate(180)"/><rect class="cls-3" x="19.07" y="35.65" width="8.52" height="23.41" transform="translate(46.67 94.72) rotate(180)"/><rect class="cls-3" x="6" y="26.52" width="8.52" height="32.54" transform="translate(20.51 85.58) rotate(180)"/><path class="cls-1" d="M72.1,25.2v2.28h3.66v2.11H72.1v2.46h4.14v2.19H69.36V23h6.88V25.2Z"/><path class="cls-1" d="M86.5,34.24,84.21,30.8l-2,3.44h-3.1l3.6-5.71L79,23h3.18l2.26,3.39,2-3.39h3.11L86,28.68l3.71,5.56Z"/><path class="cls-1" d="M99.54,27.49v2.27h-7V27.49Z"/><path class="cls-1" d="M106.27,23V34.24h-2.73V23Z"/><path class="cls-1" d="M119.91,34.24h-2.74l-4.58-6.92v6.92h-2.73V23h2.73l4.58,7V23h2.74Z"/><path class="cls-1" d="M134,23l-4,11.23h-3.43l-4-11.23h2.91l2.79,8.48,2.8-8.48Z"/><path class="cls-1" d="M139.5,25.2v2.28h3.67v2.11H139.5v2.46h4.15v2.19h-6.88V23h6.88V25.2Z"/><path class="cls-1" d="M148.88,34a3.67,3.67,0,0,1-1.56-1.19,3.28,3.28,0,0,1-.62-1.89h2.92A1.28,1.28,0,0,0,151,32.16a1.5,1.5,0,0,0,1-.28.93.93,0,0,0,.35-.77.9.9,0,0,0-.28-.69,2.42,2.42,0,0,0-.69-.45,10.57,10.57,0,0,0-1.16-.4,12.87,12.87,0,0,1-1.77-.67,3.31,3.31,0,0,1-1.19-1,2.77,2.77,0,0,1-.49-1.71,2.93,2.93,0,0,1,1.13-2.46,5.42,5.42,0,0,1,5.95,0A3.17,3.17,0,0,1,155,26.21h-3a1.12,1.12,0,0,0-.4-.85,1.39,1.39,0,0,0-.94-.32,1.16,1.16,0,0,0-.8.27.93.93,0,0,0-.31.76,1,1,0,0,0,.52.85,8.29,8.29,0,0,0,1.59.65,14,14,0,0,1,1.77.71,3.22,3.22,0,0,1,1.18,1,2.63,2.63,0,0,1,.5,1.65,3.26,3.26,0,0,1-.49,1.74,3.41,3.41,0,0,1-1.42,1.25,4.84,4.84,0,0,1-2.19.47A5.92,5.92,0,0,1,148.88,34Z"/><path class="cls-1" d="M166.54,23V25.2h-3v9h-2.74v-9h-3V23Z"/><path class="cls-1" d="M171.93,33.62a5.54,5.54,0,0,1-2.1-2.06,6.07,6.07,0,0,1,0-5.92,5.51,5.51,0,0,1,2.1-2.05,6.07,6.07,0,0,1,5.81,0,5.39,5.39,0,0,1,2.08,2.05,6.11,6.11,0,0,1,0,5.92,5.48,5.48,0,0,1-2.08,2.06,6.05,6.05,0,0,1-5.8,0ZM177,31a3.37,3.37,0,0,0,.81-2.36,3.38,3.38,0,0,0-.81-2.38,2.75,2.75,0,0,0-2.15-.89,2.8,2.8,0,0,0-2.17.88,3.43,3.43,0,0,0-.8,2.39,3.42,3.42,0,0,0,.8,2.37,2.81,2.81,0,0,0,2.17.89A2.73,2.73,0,0,0,177,31Z"/><path class="cls-1" d="M189.42,34.24,187.09,30h-.66v4.24H183.7V23h4.59a5,5,0,0,1,2.26.47,3.1,3.1,0,0,1,1.4,1.27,3.55,3.55,0,0,1,.47,1.8,3.38,3.38,0,0,1-.64,2,3.45,3.45,0,0,1-1.86,1.25l2.59,4.44Zm-3-6.17h1.7a1.56,1.56,0,0,0,1.13-.37,1.39,1.39,0,0,0,.37-1,1.35,1.35,0,0,0-.37-1,1.6,1.6,0,0,0-1.13-.37h-1.7Z"/><path class="cls-2" d="M74.77,44.25a2,2,0,0,1,.16,2.31,2,2,0,0,1-.85.73,3,3,0,0,1-1.34.27H70.08V39.87h2.58a2.61,2.61,0,0,1,1.78.54,1.81,1.81,0,0,1,.61,1.4A1.7,1.7,0,0,1,74.66,43a1.89,1.89,0,0,1-1,.62A1.82,1.82,0,0,1,74.77,44.25Zm-3.92-1h1.79a1.79,1.79,0,0,0,1.2-.36,1.27,1.27,0,0,0,.43-1,1.22,1.22,0,0,0-.43-1,1.79,1.79,0,0,0-1.23-.37H70.85ZM74,46.52a1.36,1.36,0,0,0,.46-1.09A1.4,1.4,0,0,0,74,44.32a2,2,0,0,0-1.32-.41h-1.8v3h1.83A2,2,0,0,0,74,46.52Z"/><path class="cls-2" d="M80.91,47.14a3.62,3.62,0,0,1-1.37-1.4,4.1,4.1,0,0,1-.5-2,4.15,4.15,0,0,1,.5-2,3.66,3.66,0,0,1,1.37-1.39,3.77,3.77,0,0,1,1.94-.5,3.72,3.72,0,0,1,1.94.5,3.59,3.59,0,0,1,1.37,1.39,4.15,4.15,0,0,1,.49,2,4.09,4.09,0,0,1-.49,2,3.55,3.55,0,0,1-1.37,1.4,3.81,3.81,0,0,1-1.94.5A3.87,3.87,0,0,1,80.91,47.14Zm3.48-.57a2.83,2.83,0,0,0,1.08-1.14,4,4,0,0,0,0-3.43,3,3,0,0,0-1.08-1.14,3.24,3.24,0,0,0-3.08,0A2.83,2.83,0,0,0,80.23,42a3.88,3.88,0,0,0,0,3.43,2.71,2.71,0,0,0,1.08,1.14,3.16,3.16,0,0,0,3.08,0Z"/><path class="cls-2" d="M92.33,47.14A3.55,3.55,0,0,1,91,45.74a4.1,4.1,0,0,1-.5-2,4.15,4.15,0,0,1,.5-2,3.59,3.59,0,0,1,1.37-1.39,4,4,0,0,1,3.88,0,3.59,3.59,0,0,1,1.37,1.39,4.15,4.15,0,0,1,.49,2,4.09,4.09,0,0,1-.49,2,3.55,3.55,0,0,1-1.37,1.4,4,4,0,0,1-3.88,0Zm3.48-.57a2.75,2.75,0,0,0,1.07-1.14,3.88,3.88,0,0,0,0-3.43,2.87,2.87,0,0,0-1.07-1.14,3.07,3.07,0,0,0-1.54-.39,3,3,0,0,0-1.54.39A2.83,2.83,0,0,0,91.65,42a3.88,3.88,0,0,0,0,3.43,2.71,2.71,0,0,0,1.08,1.14,2.92,2.92,0,0,0,1.54.4A3,3,0,0,0,95.81,46.57Z"/><path class="cls-2" d="M103.22,47.38a2.28,2.28,0,0,1-.9-.74,1.92,1.92,0,0,1-.35-1.06h.81a1.57,1.57,0,0,0,.49,1,2.16,2.16,0,0,0,2.53,0,1.32,1.32,0,0,0,.46-1,1.17,1.17,0,0,0-.26-.79,1.55,1.55,0,0,0-.62-.46,10.56,10.56,0,0,0-1-.32,9.49,9.49,0,0,1-1.22-.41,2,2,0,0,1-.77-.61,2.08,2.08,0,0,1,0-2.2,2,2,0,0,1,.87-.73,2.92,2.92,0,0,1,1.29-.26,2.67,2.67,0,0,1,1.72.52,2,2,0,0,1,.75,1.35h-.84a1.35,1.35,0,0,0-.51-.84,2.05,2.05,0,0,0-2.35,0,1.23,1.23,0,0,0-.46,1,1.17,1.17,0,0,0,.26.78,1.52,1.52,0,0,0,.63.45,6.63,6.63,0,0,0,1,.33,9.18,9.18,0,0,1,1.21.42,2,2,0,0,1,.78.62,1.82,1.82,0,0,1,.32,1.12,2,2,0,0,1-1.14,1.8,2.79,2.79,0,0,1-1.34.3A3.34,3.34,0,0,1,103.22,47.38Z"/><path class="cls-2" d="M115.77,39.87v.64h-2.13v7.05h-.77V40.51h-2.15v-.64Z"/><path class="cls-2" d="M130,39.87v.64h-2.13v7.05h-.77V40.51H125v-.64Z"/><path class="cls-2" d="M139.68,39.87v7.69h-.77V44h-4.17v3.59H134V39.87h.77v3.46h4.17V39.87Z"/><path class="cls-2" d="M145,40.5v2.87h2.92V44H145v2.92h3.25v.63h-4v-7.7h4v.64Z"/><path class="cls-2" d="M165.75,40v7.59H165V41.5l-2.7,6.06h-.56l-2.71-6v6h-.77V40h.81L162,46.55,164.93,40Z"/><path class="cls-2" d="M171,39.87v7.69h-.77V39.87Z"/><path class="cls-2" d="M181.32,47.56h-.77l-4.26-6.46v6.46h-.77V39.87h.77l4.26,6.46V39.87h.77Z"/><path class="cls-2" d="M190.28,40.34a3.16,3.16,0,0,1,1.4,1.33,4.22,4.22,0,0,1,.48,2.07,4.17,4.17,0,0,1-.48,2,3.25,3.25,0,0,1-1.4,1.32,4.89,4.89,0,0,1-2.19.45h-2.27V39.87h2.27A4.75,4.75,0,0,1,190.28,40.34Zm.26,5.74a3.16,3.16,0,0,0,.84-2.34,3.25,3.25,0,0,0-.84-2.38,3.33,3.33,0,0,0-2.45-.85h-1.5v6.42h1.5A3.33,3.33,0,0,0,190.54,46.08Z"/></g></g></svg>