<svg xmlns="http://www.w3.org/2000/svg" viewBox="0 0 375.72 109.56"><defs><style>.cls-1{fill:#d3d3d3;}</style></defs><title>tedx</title><g id="Layer_2" data-name="Layer 2"><g id="logo"><g id="tedx_logo" data-name="tedx logo"><path class="cls-1" d="M30.64,28.24H0V.21H94.94v28H64.31v81.32H30.64Z"/><path class="cls-1" d="M100.18.21h92.16v28H133.87V41.86h58.47v26H133.87V81.53h58.49v28H100.18Z"/><path class="cls-1" d="M198,.21H253.3c36.44,0,49.32,27,49.32,54.51,0,33.55-17.77,54.84-55.9,54.84H198ZM231.7,81.53h13.18c21,0,24.05-17,24.05-27.28,0-6.87-2.15-26-26.51-26H231.7Z"/><path class="cls-1" d="M351,67.42l-10.28-17-10,17H306.05L329.48,33,306.91,0h24.7l9.14,16.29L350.16,0h24.68L352.28,33l23.44,34.46Z"/></g></g></g></svg>